<?xml version="1.0" standalone="no"?>
<!DOCTYPE svg PUBLIC "-//W3C//DTD SVG 20010904//EN"
 "http://www.w3.org/TR/2001/REC-SVG-20010904/DTD/svg10.dtd">
<svg version="1.0" xmlns="http://www.w3.org/2000/svg"
 width="581.000000pt" height="664.000000pt" viewBox="0 0 581.000000 664.000000"
 preserveAspectRatio="xMidYMid meet">

<g transform="translate(0.000000,664.000000) scale(0.100000,-0.100000)"
fill="#000000" stroke="none">
<path d="M0 3320 l0 -3320 2905 0 2905 0 0 3320 0 3320 -2905 0 -2905 0 0
-3320z m2928 898 c17 -17 17 -379 0 -396 -15 -15 -605 -17 -628 -2 -23 15 -28
351 -6 385 l16 25 303 0 c222 0 306 -3 315 -12z m384 -135 c3 -104 -1 -243 -7
-260 -3 -9 -26 -13 -69 -13 -72 0 -76 4 -76 72 0 30 -3 39 -14 35 -18 -7 -56
45 -56 76 0 14 7 30 15 37 8 7 15 19 15 26 0 8 8 14 19 14 15 0 20 10 25 50
l7 50 69 0 70 0 2 -87z m456 35 c2 -35 7 -48 18 -48 8 0 23 -13 32 -30 9 -16
20 -30 25 -30 4 0 7 -8 7 -17 -1 -23 -45 -73 -65 -73 -10 0 -15 -11 -16 -35
-1 -19 -3 -39 -4 -45 -1 -5 -3 -15 -4 -20 -1 -7 -28 -10 -73 -8 l-73 3 -3 83
-3 82 -139 0 c-77 0 -140 2 -140 4 0 32 12 34 146 29 l134 -6 0 82 0 82 78 -3
77 -3 3 -47z m-1492 -290 c4 -6 -8 -25 -29 -45 l-37 -33 402 0 401 0 -39 34
c-29 26 -36 37 -28 46 9 9 27 -1 75 -40 35 -28 64 -56 64 -63 0 -16 -923 -23
-939 -7 -8 8 7 27 49 65 64 58 70 61 81 43z m669 -47 c3 -5 2 -11 -2 -13 -20
-8 -673 4 -668 13 8 12 662 12 670 0z m-869 -216 c20 -8 49 -26 64 -39 l29
-24 -40 -31 -39 -32 -27 20 c-37 30 -94 28 -131 -4 -36 -30 -47 -66 -32 -111
16 -48 53 -74 106 -74 l44 0 0 55 0 55 50 0 50 0 0 -83 0 -84 -42 -19 c-61
-27 -169 -25 -225 4 -57 30 -92 79 -102 142 -13 81 3 132 57 183 56 54 165 73
238 42z m1552 0 c37 -16 82 -52 82 -66 0 -4 -16 -20 -35 -34 l-34 -27 -27 21
c-41 32 -98 28 -135 -8 -38 -38 -41 -106 -6 -146 32 -38 98 -45 138 -16 l29
22 35 -27 c19 -14 35 -30 35 -33 0 -14 -46 -50 -82 -66 -75 -31 -167 -14 -230
43 -47 42 -68 85 -68 138 0 121 93 212 218 214 23 0 59 -7 80 -15z m440 -14
c64 -33 95 -81 100 -156 6 -87 -20 -144 -84 -184 -80 -51 -176 -53 -251 -4
-60 38 -87 85 -91 157 -7 133 89 222 229 212 30 -2 74 -13 97 -25z m-3338 -26
l0 -44 -57 -3 -58 -3 0 -145 0 -145 -62 -3 -63 -3 0 151 0 150 -60 0 c-60 0
-60 0 -60 29 0 62 -4 61 186 61 l174 0 0 -45z m168 -27 l3 -68 64 0 65 0 0 70
0 70 60 0 60 0 -2 -192 -3 -193 -57 -3 -58 -3 0 76 0 75 -65 0 -65 0 0 -75 0
-75 -60 0 -60 0 0 195 0 196 58 -3 57 -3 3 -67z m642 27 l0 -45 -95 0 -95 0 0
-30 0 -30 85 0 85 0 0 -45 0 -45 -85 0 -85 0 0 -30 0 -30 100 0 100 0 0 -45 0
-45 -160 0 -160 0 0 188 c0 104 3 192 7 195 3 4 73 7 155 7 l148 0 0 -45z
m785 13 c10 -18 29 -50 43 -72 l24 -38 46 71 46 71 53 0 53 0 -38 -62 c-101
-167 -112 -192 -112 -262 l0 -66 -55 0 -55 0 0 67 c0 65 -2 72 -70 190 -38 68
-70 125 -70 128 0 3 26 5 58 5 55 0 59 -2 77 -32z m459 -70 c34 -53 64 -100
68 -103 3 -4 35 41 69 99 l64 106 47 0 48 0 0 -195 0 -195 -50 0 c-49 0 -49 0
-56 36 -4 20 -4 60 -1 89 3 29 3 56 -1 59 -3 4 -25 -28 -49 -69 -38 -65 -47
-75 -72 -75 -24 0 -33 10 -72 75 l-44 75 -3 -95 -3 -96 -52 3 -52 3 -3 193 -2
193 51 -3 52 -3 61 -97z m1721 91 c61 -17 121 -83 130 -142 14 -90 -15 -157
-86 -204 -40 -27 -49 -28 -176 -31 l-133 -4 0 196 0 196 113 0 c61 0 130 -5
152 -11z m509 -5 c3 -9 6 -29 6 -45 l0 -29 -94 0 c-98 0 -112 -6 -101 -40 6
-18 15 -20 86 -20 l79 0 0 -45 0 -45 -85 0 c-88 0 -95 -4 -79 -44 5 -13 24
-16 100 -16 l94 0 0 -45 0 -45 -155 0 -155 0 0 195 0 195 149 0 c127 0 150 -2
155 -16z m328 6 c20 -6 50 -26 67 -46 26 -29 31 -43 31 -85 0 -57 -11 -85 -46
-115 l-24 -20 40 -57 41 -57 -66 0 -66 0 -31 50 c-23 37 -37 50 -54 50 -22 0
-24 -4 -24 -50 l0 -50 -60 0 -60 0 0 195 0 195 108 0 c59 0 124 -5 144 -10z
m-3492 -670 c0 -80 -4 -130 -10 -130 -6 0 -10 50 -10 130 0 80 4 130 10 130 6
0 10 -50 10 -130z m2190 0 c0 -109 -2 -130 -15 -130 -13 0 -15 21 -15 130 0
109 2 130 15 130 13 0 15 -21 15 -130z m-1703 49 c2 -24 0 -62 -2 -84 -5 -40
-6 -41 -45 -40 -47 1 -80 28 -80 65 0 38 32 64 70 57 28 -6 30 -5 30 24 0 49
25 29 27 -22z m1295 36 c0 -5 -5 -11 -11 -13 -6 -2 -11 4 -11 13 0 9 5 15 11
13 6 -2 11 -8 11 -13z m306 -71 l-3 -87 -35 -3 c-19 -1 -45 4 -57 12 -65 42
-11 141 57 104 21 -11 22 -11 16 14 -7 28 -1 46 15 46 6 0 9 -35 7 -86z
m-1924 70 c31 -12 16 -22 -24 -17 -75 10 -110 -62 -53 -107 26 -20 37 -21 76
-5 10 4 17 3 17 -4 0 -21 -50 -33 -87 -20 -62 20 -77 107 -26 147 18 13 70 16
97 6z m786 -9 c12 -14 8 -15 -29 -9 -53 8 -81 -13 -81 -62 0 -41 36 -70 76
-60 20 5 25 12 22 31 -2 13 2 24 7 25 6 0 10 -14 10 -32 0 -25 -5 -33 -28 -41
-40 -13 -86 8 -103 49 -15 37 -11 58 19 92 24 26 87 31 107 7z m690 0 c11 -13
7 -14 -33 -9 -41 6 -46 4 -63 -21 -22 -34 -10 -75 29 -93 36 -18 57 -9 57 23
0 14 5 25 10 25 6 0 10 -13 10 -30 0 -54 -67 -64 -117 -18 -30 28 -31 90 -3
118 24 24 91 27 110 5z m-1333 -33 c19 -12 31 -55 22 -80 -16 -41 -81 -51
-110 -16 -17 21 -13 76 7 91 20 14 62 17 81 5z m313 -12 c35 -35 26 -50 -30
-50 -52 0 -64 -12 -31 -30 13 -7 28 -7 45 0 17 6 26 6 26 0 0 -15 -49 -32 -72
-24 -27 8 -51 49 -43 73 16 52 69 67 105 31z m404 -25 c19 -49 31 -51 41 -6 7
31 35 64 35 42 0 -25 -62 -160 -76 -165 -17 -6 -44 3 -44 15 0 5 9 9 20 9 31
0 35 25 11 80 -23 53 -26 70 -12 70 4 0 16 -20 25 -45z m183 33 c10 -8 17 -8
25 0 19 19 56 14 72 -10 21 -30 21 -98 1 -98 -11 0 -15 12 -15 44 0 49 -9 61
-40 51 -16 -5 -20 -15 -20 -51 0 -24 -4 -44 -10 -44 -5 0 -10 12 -10 28 0 47
-11 72 -31 72 -21 0 -39 -35 -39 -76 0 -13 -4 -24 -10 -24 -9 0 -15 102 -6
111 10 10 71 8 83 -3z m533 2 c0 -6 -6 -10 -14 -10 -18 0 -26 -22 -26 -71 0
-24 -4 -38 -10 -34 -10 6 -15 107 -6 116 10 9 56 8 56 -1z m40 -56 c0 -41 -4
-63 -10 -59 -5 3 -10 33 -10 66 0 33 4 59 10 59 6 0 10 -29 10 -66z m137 54
c15 -12 18 -118 4 -118 -6 0 -11 24 -13 53 -3 48 -5 52 -28 52 -22 0 -26 -6
-35 -53 -12 -66 -25 -57 -25 18 l0 56 42 1 c23 1 48 -3 55 -9z m-1225 -103 c0
-5 -5 -11 -11 -13 -6 -2 -11 4 -11 13 0 9 5 15 11 13 6 -2 11 -8 11 -13z m688
1 c0 -8 -4 -17 -9 -21 -12 -7 -24 12 -16 25 9 15 25 12 25 -4z"/>
<path d="M2335 4192 c-6 -4 -11 -78 -12 -174 l-2 -168 290 0 289 0 -2 173 -3
172 -275 2 c-151 1 -280 -1 -285 -5z"/>
<path d="M3218 4133 c-15 -4 -17 -22 -20 -140 -2 -74 0 -139 3 -145 3 -5 21
-8 40 -6 l34 3 0 145 c0 138 -1 145 -20 147 -11 0 -28 -1 -37 -4z"/>
<path d="M3146 4044 c-10 -25 -7 -94 4 -94 6 0 10 25 10 55 0 57 -3 66 -14 39z"/>
<path d="M3648 4109 c-3 -17 -4 -50 -4 -73 1 -22 3 -73 4 -112 2 -67 4 -72 26
-78 53 -13 56 -6 56 150 l0 144 -39 0 c-36 0 -39 -2 -43 -31z"/>
<path d="M3770 4001 c0 -36 14 -61 26 -48 8 7 -8 87 -17 87 -5 0 -9 -18 -9
-39z"/>
<path d="M3888 3450 c-28 -28 -30 -35 -26 -82 7 -63 40 -98 94 -98 54 0 94 44
94 105 0 96 -97 140 -162 75z"/>
<path d="M4360 3375 l0 -105 40 0 c54 0 86 17 105 55 40 86 -9 155 -111 155
l-34 0 0 -105z"/>
<path d="M5210 3425 l0 -55 39 0 c47 0 71 20 71 60 0 35 -23 50 -74 50 l-36 0
0 -55z"/>
<path d="M2238 2895 c-14 -32 5 -57 41 -53 18 2 27 10 29 26 7 50 -49 72 -70
27z"/>
<path d="M3846 2898 c-13 -19 -14 -25 -2 -43 18 -26 40 -30 60 -10 20 21 20
39 0 59 -21 22 -40 20 -58 -6z"/>
<path d="M2087 2913 c-15 -15 -7 -63 13 -73 42 -22 82 34 48 68 -13 13 -50 16
-61 5z"/>
<path d="M2400 2905 c-11 -13 -8 -15 25 -15 25 0 35 4 33 13 -7 18 -43 20 -58
2z"/>
</g>
</svg>
